HIERARCHY
ROOT SpineBase
{
  OFFSET 0.000000 0.000000 0.000000
  CHANNELS 6 Xposition Yposition Zposition Zrotation Xrotation Yrotation
  JOINT SpineMid
  {
    OFFSET 0.000000 27.622397 -0.000000
    CHANNELS 3 Zrotation Xrotation Yrotation
    JOINT SpineShoulder
    {
      OFFSET -0.068594 20.583370 -0.732556
      CHANNELS 3 Zrotation Xrotation Yrotation
      JOINT Neck
      {
        OFFSET -0.013677 6.836957 -0.545051
        CHANNELS 3 Zrotation Xrotation Yrotation
        JOINT Head
        {
          OFFSET -3.779686 11.753571 1.271703
          CHANNELS 3 Zrotation Xrotation Yrotation
          End Site
          {
            OFFSET 0 0 0
          }
        }
      }
      JOINT ShoulderLeft
      {
        OFFSET -11.790665 -5.097507 4.123318
        CHANNELS 3 Zrotation Xrotation Yrotation
        JOINT ElbowLeft
        {
          OFFSET -0.788503 -23.103257 2.471453
          CHANNELS 3 Zrotation Xrotation Yrotation
          JOINT WristLeft
          {
            OFFSET -0.862263 -21.480837 -3.881161
            CHANNELS 3 Zrotation Xrotation Yrotation
            JOINT HandLeft
            {
              OFFSET 0.570374 -5.596070 -1.746122
              CHANNELS 3 Zrotation Xrotation Yrotation
              JOINT HandTipLeft
              {
                OFFSET 1.127079 -6.589747 0.093131
                CHANNELS 3 Zrotation Xrotation Yrotation
                End Site
                {
                  OFFSET 0 0 0
                }
              }
              JOINT ThumbLeft
              {
                OFFSET -1.633425 -2.287365 -0.787726
                CHANNELS 3 Zrotation Xrotation Yrotation
                End Site
                {
                  OFFSET 0 0 0
                }
              }
            }
          }
        }
      }
      JOINT ShoulderRight
      {
        OFFSET 10.255696 -2.144600 -8.038423
        CHANNELS 3 Zrotation Xrotation Yrotation
        JOINT ElbowRight
        {
          OFFSET 5.554382 -22.709916 -3.496580
          CHANNELS 3 Zrotation Xrotation Yrotation
          JOINT WristRight
          {
            OFFSET -1.200433 -18.185351 -5.562169
            CHANNELS 3 Zrotation Xrotation Yrotation
            JOINT HandRight
            {
              OFFSET -0.966941 -7.426556 -0.958085
              CHANNELS 3 Zrotation Xrotation Yrotation
              JOINT HandTipRight
              {
                OFFSET 0.196931 -5.901573 -1.217881
                CHANNELS 3 Zrotation Xrotation Yrotation
                End Site
                {
                  OFFSET 0 0 0
                }
              }
              JOINT ThumbRight
              {
                OFFSET 2.093563 0.127781 -2.129800
                CHANNELS 3 Zrotation Xrotation Yrotation
                End Site
                {
                  OFFSET 0 0 0
                }
              }
            }
          }
        }
      }
    }
  }
  JOINT HipLeft
  {
    OFFSET -4.927866 0.395631 -0.689624
    CHANNELS 3 Zrotation Xrotation Yrotation
    JOINT KneeLeft
    {
      OFFSET 5.738714 -29.787816 0.514763
      CHANNELS 3 Zrotation Xrotation Yrotation
      JOINT AnkleLeft
      {
        OFFSET 6.520363 -31.710586 5.000288
        CHANNELS 3 Zrotation Xrotation Yrotation
        JOINT FootLeft
        {
          OFFSET -4.695120 -2.532375 -11.097615
          CHANNELS 3 Zrotation Xrotation Yrotation
          End Site
          {
            OFFSET 0 0 0
          }
        }
      }
    }
  }
  JOINT HipRight
  {
    OFFSET 5.002055 1.331329 -5.434109
    CHANNELS 3 Zrotation Xrotation Yrotation
    JOINT KneeRight
    {
      OFFSET 7.588903 -30.413828 -1.074233
      CHANNELS 3 Zrotation Xrotation Yrotation
      JOINT AnkleRight
      {
        OFFSET 5.002979 -29.564540 3.421797
        CHANNELS 3 Zrotation Xrotation Yrotation
        JOINT FootRight
        {
          OFFSET -4.117137 -2.612116 -11.028492
          CHANNELS 3 Zrotation Xrotation Yrotation
          End Site
          {
            OFFSET 0 0 0
          }
        }
      }
    }
  }
}
MOTION
Frames: 5
Frame Time: 0.033333
16.893431 51.145620 372.203314 23.132674 -21.413759 25.909451 -1.032137 0.775094 -20.616771 -0.402853 0.241659 0.948469 -13.047098 24.045447 -0.589743 0.000000 0.000000 0.000000 -5.087391 -5.370685 2.662243 -3.331758 41.471142 -7.729021 -9.570804 -12.630465 1.319626 -14.864815 34.117824 10.567871 0.000000 0.000000 0.000000 0.000000 0.000000 0.000000 -0.683782 0.915900 -9.693572 -36.244056 9.469963 19.344887 3.230009 8.921308 -3.022812 -11.788538 6.357581 5.166434 0.000000 0.000000 0.000000 0.000000 0.000000 0.000000 -81.580349 68.596287 47.088649 33.622874 -50.946070 1.367447 13.989537 -13.503015 -15.113530 0.000000 0.000000 0.000000 -102.254859 52.184059 61.270186 73.255763 -34.229360 19.813698 42.747096 -56.047395 61.126670 0.000000 0.000000 0.000000
17.045233 49.837453 373.642567 21.973281 -22.273620 19.016623 -0.730148 0.859050 -13.921942 -0.271315 0.546849 0.846721 -11.899580 24.453407 -0.808085 0.000000 0.000000 0.000000 -3.968760 -5.443221 2.593722 -3.923302 42.479038 -7.663752 -9.673588 -18.915634 0.695833 -21.772867 39.442706 15.442594 0.000000 0.000000 0.000000 0.000000 0.000000 0.000000 -1.015933 0.193162 -9.540701 -38.585693 12.081538 21.359701 4.304397 9.759407 -3.580309 -11.369984 1.470091 4.291027 0.000000 0.000000 0.000000 0.000000 0.000000 0.000000 -89.949949 62.954868 57.300227 37.126931 -54.536104 3.558612 14.210333 -15.680145 -17.093093 0.000000 0.000000 0.000000 -105.048781 46.139014 66.030919 77.334010 -36.322644 23.761622 39.431442 -56.548494 58.358014 0.000000 0.000000 0.000000
17.422061 48.678047 374.960535 20.860604 -22.506876 13.874603 -0.528651 0.839787 -9.055531 -0.082335 0.794075 0.750955 -11.353884 23.740024 -0.981144 0.000000 0.000000 0.000000 -3.248849 -4.684608 2.377547 -4.016213 40.991976 -7.578650 -9.710518 -23.188983 0.211864 -33.970107 44.222022 24.140648 0.000000 0.000000 0.000000 0.000000 0.000000 0.000000 -2.776880 -0.019843 -8.796369 -38.771810 14.403781 22.370802 5.861873 10.826638 -4.124539 -12.026620 -2.328637 3.645584 0.000000 0.000000 0.000000 0.000000 0.000000 0.000000 -98.888328 57.707319 66.765133 44.604593 -58.136387 8.656008 13.663797 -17.018002 -19.445843 0.000000 0.000000 0.000000 -107.728690 42.509923 70.778171 78.886336 -40.052283 26.643082 31.357621 -56.505310 45.007272 0.000000 0.000000 0.000000
18.298665 47.259986 376.141292 20.149938 -22.111918 9.639257 -0.449621 1.050220 -5.120774 0.030362 1.129252 0.662693 -10.994790 22.633170 -1.051602 0.000000 0.000000 0.000000 -3.496152 -3.884945 2.154846 -3.701049 40.250810 -7.452161 -9.776344 -27.752491 -0.274384 -38.691700 46.433577 28.690865 0.000000 0.000000 0.000000 0.000000 0.000000 0.000000 -4.190862 -0.589554 -8.079339 -39.565072 16.639777 23.292409 6.879000 10.839910 -4.490699 -14.438081 -6.184051 2.888307 0.000000 0.000000 0.000000 0.000000 0.000000 0.000000 -107.151577 51.187101 73.402816 57.384572 -60.381595 17.755483 12.571531 -18.771533 -23.039020 0.000000 0.000000 0.000000 -110.446816 39.667807 74.800847 78.833665 -44.607066 28.249666 20.607563 -53.153894 25.888843 0.000000 0.000000 0.000000
19.216681 45.990210 376.950038 19.249658 -21.169898 6.562288 -0.907310 1.200397 -2.368032 -0.051389 1.229676 0.613918 -8.237521 21.572943 -1.806246 0.000000 0.000000 0.000000 -3.269575 -3.771546 1.965057 -3.124119 39.962059 -7.284194 -9.745333 -30.643036 -0.611923 -36.820602 45.585515 27.413868 0.000000 0.000000 0.000000 0.000000 0.000000 0.000000 -4.760559 -0.887052 -7.387986 -40.003110 18.202872 23.800658 10.147702 10.622129 -5.173790 -17.462628 -10.520926 1.598015 0.000000 0.000000 0.000000 0.000000 0.000000 0.000000 -113.550469 44.842298 77.071426 72.872020 -60.419051 29.079199 11.142855 -22.355478 -30.141404 0.000000 0.000000 0.000000 -113.218726 36.908605 77.849730 80.519491 -48.310113 30.276636 9.860002 -43.109870 8.884545 0.000000 0.000000 0.000000
